<svg xmlns="http://www.w3.org/2000/svg" viewBox="0 0 1200 1400" role="img" aria-labelledby="title desc">
  <title id="title">Vienna showroom abstract visual</title>
  <desc id="desc">A stylized city tower, Danube waves and OPPO green architecture.</desc>
  <defs>
    <linearGradient id="sky" x1="0" y1="0" x2="0" y2="1">
      <stop offset="0" stop-color="#dce9e2"/>
      <stop offset=".55" stop-color="#f5f6f2"/>
      <stop offset="1" stop-color="#7fb092"/>
    </linearGradient>
    <linearGradient id="tower" x1="0" y1="0" x2="1" y2="1">
      <stop offset="0" stop-color="#112f20"/>
      <stop offset="1" stop-color="#2a8154"/>
    </linearGradient>
  </defs>
  <rect width="1200" height="1400" fill="url(#sky)"/>
  <circle cx="925" cy="250" r="155" fill="#fff" opacity=".58"/>
  <g transform="translate(360 135)">
    <path d="M170 0h245l80 985H55z" fill="url(#tower)"/>
    <path d="M198 42h182l58 850H121z" fill="#b9d6c5" opacity=".2"/>
    <g stroke="#e8f3ec" stroke-width="7" opacity=".45">
      <path d="M160 145h272M150 245h291M140 345h310M130 445h329M120 545h348M110 645h367M100 745h386"/>
    </g>
    <rect x="192" y="980" width="180" height="95" rx="18" fill="#ecf5ef"/>
    <rect x="226" y="1015" width="112" height="23" rx="11" fill="#1f7a4d"/>
  </g>
  <g fill="#356f50" opacity=".72">
    <rect x="85" y="790" width="190" height="360" rx="15"/>
    <rect x="910" y="715" width="205" height="435" rx="15"/>
    <rect x="735" y="855" width="145" height="295" rx="15"/>
  </g>
  <path d="M-80 1155c210-92 380 95 600 5s380 84 760-5" fill="none" stroke="#eaf5ee" stroke-width="75" opacity=".9"/>
  <path d="M-80 1245c210-92 380 95 600 5s380 84 760-5" fill="none" stroke="#1f7a4d" stroke-width="42" opacity=".72"/>
</svg>
