<svg xmlns="http://www.w3.org/2000/svg" viewBox="0 0 1200 1400" role="img" aria-labelledby="title desc">
  <title id="title">OPPO Austria abstract technology visual</title>
  <desc id="desc">A green and white abstract composition with flowing lines and interface cards.</desc>
  <defs>
    <linearGradient id="bg" x1="0" y1="0" x2="1" y2="1">
      <stop offset="0" stop-color="#dfeee6"/>
      <stop offset=".52" stop-color="#f5f7f5"/>
      <stop offset="1" stop-color="#a9ceb9"/>
    </linearGradient>
    <linearGradient id="dark" x1="0" y1="0" x2="1" y2="1">
      <stop offset="0" stop-color="#0b2417"/>
      <stop offset="1" stop-color="#1f7a4d"/>
    </linearGradient>
    <filter id="blur"><feGaussianBlur stdDeviation="44"/></filter>
  </defs>
  <rect width="1200" height="1400" fill="url(#bg)"/>
  <circle cx="1020" cy="280" r="270" fill="#58a779" opacity=".32" filter="url(#blur)"/>
  <circle cx="180" cy="1120" r="310" fill="#c8e4d4" opacity=".8" filter="url(#blur)"/>
  <g transform="translate(145 180)">
    <rect x="90" y="85" width="470" height="830" rx="72" fill="#fff" stroke="#102a1b" stroke-width="22"/>
    <rect x="135" y="152" width="380" height="650" rx="40" fill="#eef5f0"/>
    <rect x="240" y="112" width="170" height="20" rx="10" fill="#102a1b"/>
    <circle cx="235" cy="310" r="68" fill="#1f7a4d"/>
    <circle cx="410" cy="310" r="68" fill="#102a1b"/>
    <rect x="185" y="430" width="280" height="26" rx="13" fill="#1f7a4d"/>
    <rect x="185" y="485" width="210" height="18" rx="9" fill="#779387"/>
    <rect x="185" y="570" width="280" height="150" rx="32" fill="url(#dark)"/>
    <path d="M220 665c65-95 145-95 210 0" fill="none" stroke="#fff" stroke-width="17" stroke-linecap="round" opacity=".9"/>
  </g>
  <g transform="translate(660 380)">
    <rect width="390" height="130" rx="45" fill="#fff" opacity=".9"/>
    <rect x="42" y="36" width="150" height="24" rx="12" fill="#1f7a4d"/>
    <rect x="42" y="78" width="260" height="16" rx="8" fill="#84988f"/>
    <rect y="170" width="390" height="250" rx="48" fill="#fff" opacity=".92"/>
    <rect x="42" y="216" width="122" height="21" rx="10" fill="#1f7a4d"/>
    <rect x="42" y="258" width="270" height="17" rx="8" fill="#7b8b84"/>
    <rect x="42" y="315" width="306" height="62" rx="22" fill="url(#dark)"/>
  </g>
  <path d="M-40 1080C210 900 400 1260 650 1060s420-105 620 5" fill="none" stroke="#fff" stroke-width="34" stroke-linecap="round" opacity=".55"/>
</svg>
